<?xml version="1.0" encoding="UTF-8"?>
<svg version="1.1" xmlns="http://www.w3.org/2000/svg" width="703" height="140">
<path d="M0 0 C5.34044742 4.50971116 10.50835735 9.1863325 15.64453125 13.92578125 C17.81182131 16.01236044 17.81182131 16.01236044 20 17 C20 17.66 20 18.32 20 19 C20.66 19 21.32 19 22 19 C22 19.66 22 20.32 22 21 C22.52980469 21.21269531 23.05960937 21.42539062 23.60546875 21.64453125 C26.93137395 23.52722147 29.55247275 26.07875075 32.3125 28.6875 C32.88846924 29.22769775 33.46443848 29.76789551 34.05786133 30.32446289 C35.19623827 31.39541376 36.33229759 32.46883449 37.46582031 33.54492188 C38.74862194 34.76158287 40.04112591 35.96800335 41.3359375 37.171875 C44.5287802 40.21652669 46.80359585 42.61318477 48 47 C48.66 47 49.32 47 50 47 C57.80170896 57.07534986 61.5805194 69.35584481 60 82 C58.58483328 87.29034289 56.49307225 92.13738611 54 97 C53.34 97 52.68 97 52 97 C52 97.66 52 98.32 52 99 C51.34 99 50.68 99 50 99 C50 99.66 50 100.32 50 101 C49.34 101 48.68 101 48 101 C48 101.66 48 102.32 48 103 C38.35272227 110.14325594 28.87635516 112.15018755 17 111 C13.75052188 109.99545703 10.95294803 108.65820727 8 107 C9.09766209 109.58627232 10.20280384 112.16889586 11.3125 114.75 C11.62123047 115.47960937 11.92996094 116.20921875 12.24804688 116.9609375 C13.85507455 120.68247527 15.47508275 123.79918183 18 127 C18 127.66 18 128.32 18 129 C18.66 129 19.32 129 20 129 C24 133.47058824 24 133.47058824 24 136 C24.66 136 25.32 136 26 136 C26 136.66 26 137.32 26 138 C9.17 138 -7.66 138 -25 138 C-22.76463631 133.52927262 -19.95725145 130.16378339 -16.77734375 126.33984375 C-14.83606363 124.04489643 -14.83606363 124.04489643 -14 121 C-13.34 121 -12.68 121 -12 121 C-11.814375 119.9171875 -11.814375 119.9171875 -11.625 118.8125 C-11 116 -11 116 -9.9375 113.375 C-8.81641673 110.9604786 -8.81641673 110.9604786 -9 108 C-9.86625 108.495 -10.7325 108.99 -11.625 109.5 C-20.78975398 113.36956279 -30.92098987 111.23858344 -39.8671875 107.875 C-40.57101563 107.58625 -41.27484375 107.2975 -42 107 C-42 106.34 -42 105.68 -42 105 C-42.721875 104.773125 -43.44375 104.54625 -44.1875 104.3125 C-51.80743875 100.75652858 -55.35134923 93.16088051 -58.3125 85.6875 C-61.14797841 70.47902487 -56.37117046 57.55675569 -48 45 C-47.34 45 -46.68 45 -46 45 C-45.74476562 44.42024414 -45.48953125 43.84048828 -45.2265625 43.24316406 C-43.87415223 40.76984688 -42.36267476 39.10397891 -40.375 37.109375 C-39.31539062 36.04589844 -39.31539062 36.04589844 -38.234375 34.9609375 C-37.49703125 34.23132812 -36.7596875 33.50171875 -36 32.75 C-34.89398438 31.63238281 -34.89398438 31.63238281 -33.765625 30.4921875 C-33.05921875 29.78835937 -32.3528125 29.08453125 -31.625 28.359375 C-30.97789063 27.71452148 -30.33078125 27.06966797 -29.6640625 26.40527344 C-28 25 -28 25 -26 25 C-26 24.34 -26 23.68 -26 23 C-25.34 23 -24.68 23 -24 23 C-24 22.34 -24 21.68 -24 21 C-22.46729429 19.64864497 -20.87223227 18.36746113 -19.25 17.125 C-16.60372307 15.08999756 -14.12976762 13.1329888 -11.796875 10.7421875 C-10 9 -10 9 -8 9 C-8 8.34 -8 7.68 -8 7 C-7.34 7 -6.68 7 -6 7 C-6 6.34 -6 5.68 -6 5 C-5.34 5 -4.68 5 -4 5 C-4 4.34 -4 3.68 -4 3 C-3.34 3 -2.68 3 -2 3 C-2 2.34 -2 1.68 -2 1 C-1.34 0.67 -0.68 0.34 0 0 Z " fill="#182026" transform="translate(59,0)"/>
<path d="M0 0 C5.28 0 10.56 0 16 0 C20 5 20 5 20 8 C20.66 8 21.32 8 22 8 C23.55078125 10.34375 23.55078125 10.34375 25.3125 13.5 C27.44191866 17.26880374 29.58917624 20.98845293 31.9375 24.625 C34 28 34 28 34 30 C34.66 30 35.32 30 36 30 C36.495 31.485 36.495 31.485 37 33 C39.475 28.545 39.475 28.545 42 24 C42.66 24 43.32 24 44 24 C44.21527344 23.19175781 44.43054688 22.38351563 44.65234375 21.55078125 C46.38220169 16.99298164 48.87031767 13.23094414 51.5625 9.1875 C52.32336914 8.02444336 52.32336914 8.02444336 53.09960938 6.83789062 C56.81150351 1.18849649 56.81150351 1.18849649 58 0 C63.28 0 68.56 0 74 0 C74 24.42 74 48.84 74 74 C70.68708814 74.82822796 68.3433343 75.13519309 65 75.125 C63.7315625 75.12886719 63.7315625 75.12886719 62.4375 75.1328125 C60 75 60 75 56 74 C56 60.14 56 46.28 56 32 C52.16102937 38.02500935 52.16102937 38.02500935 48.796875 44.2109375 C48.4565625 44.89800781 48.11625 45.58507813 47.765625 46.29296875 C47.43046875 46.98003906 47.0953125 47.66710938 46.75 48.375 C46.2240625 49.44041016 46.2240625 49.44041016 45.6875 50.52734375 C44.7883189 52.34991467 43.89381033 54.17478919 43 56 C42.505 56.99 42.505 56.99 42 58 C40.37581255 58.08090971 38.75048255 58.13914995 37.125 58.1875 C36.22007812 58.22230469 35.31515625 58.25710937 34.3828125 58.29296875 C33.20332031 58.14794922 33.20332031 58.14794922 32 58 C30 55 30 55 30 52 C29.34 52 28.68 52 28 52 C27.7326001 51.42967041 27.4652002 50.85934082 27.18969727 50.27172852 C25.98285833 47.70093338 24.7727249 45.13170278 23.5625 42.5625 C23.14162109 41.66466797 22.72074219 40.76683594 22.28710938 39.84179688 C21.88427734 38.98779297 21.48144531 38.13378906 21.06640625 37.25390625 C20.69459229 36.46314697 20.32277832 35.6723877 19.93969727 34.85766602 C19.13895211 33.03502006 19.13895211 33.03502006 18 32 C18 45.86 18 59.72 18 74 C14.52588517 74.86852871 11.96655183 75.13460286 8.4375 75.125 C7.48746094 75.12757812 6.53742188 75.13015625 5.55859375 75.1328125 C3 75 3 75 0 74 C0 49.58 0 25.16 0 0 Z " fill="#FEFEFE" transform="translate(194,4)"/>
<path d="M0 0 C3.88413126 1.98454831 7.40531417 4.5353268 11 7 C11.60070312 7.39993164 12.20140625 7.79986328 12.8203125 8.21191406 C14.72431098 9.48026696 16.61341608 10.76841522 18.5 12.0625 C19.09941406 12.46138428 19.69882813 12.86026855 20.31640625 13.27124023 C24.3355665 16.08705566 26.49389831 18.31957982 28 23 C28.46741269 27.29906588 28.50965671 31.55362129 28.5 35.875 C28.52835938 37.02097656 28.55671875 38.16695312 28.5859375 39.34765625 C28.60224952 46.43522793 28.04919493 51.74578582 23 57 C20.69983486 58.86967429 18.29905943 60.29569514 15.6875 61.6875 C14.34580082 62.43911725 13.00464918 63.19171279 11.6640625 63.9453125 C11.02758789 64.29625977 10.39111328 64.64720703 9.73535156 65.00878906 C7.58645077 66.23621411 5.58393567 67.63702544 3.5625 69.0625 C0.52392609 70.93138632 -2.17811882 71.79228748 -5.8359375 71.56640625 C-10.33545695 70.38873419 -14.37242602 67.86935155 -18 65 C-18 64.34 -18 63.68 -18 63 C-18.82757813 62.85884766 -18.82757813 62.85884766 -19.671875 62.71484375 C-22.62405565 61.8083856 -24.72721344 60.33656482 -27.25 58.5625 C-28.14203125 57.94503906 -29.0340625 57.32757813 -29.953125 56.69140625 C-30.62859375 56.13324219 -31.3040625 55.57507813 -32 55 C-32 54.34 -32 53.68 -32 53 C-32.66 53 -33.32 53 -34 53 C-35.63609622 47.51629073 -35.22520848 41.79606086 -35.25 36.125 C-35.270625 34.95324219 -35.29125 33.78148437 -35.3125 32.57421875 C-35.36080485 21.93507659 -35.36080485 21.93507659 -32 17 C-31.34 17 -30.68 17 -30 17 C-30 16.34 -30 15.68 -30 15 C-28.09625645 13.55036041 -26.12532841 12.18815677 -24.125 10.875 C-23.03445312 10.15054688 -21.94390625 9.42609375 -20.8203125 8.6796875 C-18 7 -18 7 -16 7 C-16 6.34 -16 5.68 -16 5 C-14.0234375 3.45703125 -14.0234375 3.45703125 -11.375 1.8125 C-10.51648438 1.26207031 -9.65796875 0.71164063 -8.7734375 0.14453125 C-5.29751753 -1.28989769 -3.586672 -1.0355221 0 0 Z " fill="#1FD082" transform="translate(63,32)"/>
<path d="M0 0 C16 0 16 0 19.64453125 3.140625 C20.81445312 5.13671875 20.81445312 5.13671875 21.8125 7.25 C22.19212891 7.93191406 22.57175781 8.61382812 22.96289062 9.31640625 C23.68985856 10.62317235 24.39466462 11.94260596 25.07275391 13.27539062 C26.02984926 15.16597836 26.02984926 15.16597836 27.76171875 17.296875 C29 19 29 19 29 22 C29.66 22 30.32 22 31 22 C32.4453125 23.984375 32.4453125 23.984375 34.125 26.75 C37.92310523 32.96508128 41.94206839 38.91310258 46 45 C46.33 30.15 46.66 15.3 47 0 C52.28 0 57.56 0 63 0 C63 24.42 63 48.84 63 74 C59.62231526 75.12589491 56.99187928 75.13294275 53.4375 75.125 C52.28121094 75.12757812 51.12492187 75.13015625 49.93359375 75.1328125 C47 75 47 75 45 74 C44.23979006 72.75950239 43.54145151 71.48078877 42.875 70.1875 C40.17878234 65.17221417 37.06675771 60.50285765 33.8671875 55.796875 C29 48.50627615 29 48.50627615 29 46 C28.34 46 27.68 46 27 46 C25.79939985 44.17248549 24.68927699 42.28512159 23.625 40.375 C21.22333722 36.09009505 18.73845035 32.10767552 16 28 C16 43.18 16 58.36 16 74 C13.05173237 74.98275588 11.07347496 75.13414725 8 75.125 C6.700625 75.12886719 6.700625 75.12886719 5.375 75.1328125 C3 75 3 75 0 74 C0 49.58 0 25.16 0 0 Z " fill="#FEFEFE" transform="translate(427,4)"/>
<path d="M0 0 C3.63272083 2.13611897 6.52130354 4.12652589 8.71484375 7.828125 C8.38484375 8.488125 8.05484375 9.148125 7.71484375 9.828125 C7.05484375 9.828125 6.39484375 9.828125 5.71484375 9.828125 C5.71484375 10.488125 5.71484375 11.148125 5.71484375 11.828125 C5.05484375 11.828125 4.39484375 11.828125 3.71484375 11.828125 C3.71484375 12.488125 3.71484375 13.148125 3.71484375 13.828125 C3.05484375 13.828125 2.39484375 13.828125 1.71484375 13.828125 C1.71484375 14.488125 1.71484375 15.148125 1.71484375 15.828125 C1.05484375 15.828125 0.39484375 15.828125 -0.28515625 15.828125 C-0.28515625 16.488125 -0.28515625 17.148125 -0.28515625 17.828125 C-3.78576707 17.17986374 -6.27326304 15.68159775 -9.28515625 13.828125 C-14.83667042 11.97762028 -20.41015297 12.02455217 -25.78515625 14.328125 C-26.61015625 14.823125 -27.43515625 15.318125 -28.28515625 15.828125 C-28.94515625 15.828125 -29.60515625 15.828125 -30.28515625 15.828125 C-30.28515625 16.488125 -30.28515625 17.148125 -30.28515625 17.828125 C-30.94515625 17.828125 -31.60515625 17.828125 -32.28515625 17.828125 C-32.59453125 18.776875 -32.90390625 19.725625 -33.22265625 20.703125 C-34.28515625 23.828125 -34.28515625 23.828125 -35.28515625 25.828125 C-35.43688711 28.75769781 -35.51660851 31.64758245 -35.53515625 34.578125 C-35.55578125 35.37734375 -35.57640625 36.1765625 -35.59765625 37 C-35.63119023 42.09716471 -34.90921045 45.32580042 -32.28515625 49.828125 C-32.28515625 50.488125 -32.28515625 51.148125 -32.28515625 51.828125 C-31.62515625 51.828125 -30.96515625 51.828125 -30.28515625 51.828125 C-30.28515625 52.488125 -30.28515625 53.148125 -30.28515625 53.828125 C-24.96983936 55.60222551 -20.4289682 56.0858918 -14.84765625 55.953125 C-14.11611328 55.94410156 -13.38457031 55.93507812 -12.63085938 55.92578125 C-10.84881327 55.90248653 -9.06693866 55.8666269 -7.28515625 55.828125 C-7.28515625 52.198125 -7.28515625 48.568125 -7.28515625 44.828125 C-11.57515625 44.828125 -15.86515625 44.828125 -20.28515625 44.828125 C-22.010939 40.51366812 -22.52596878 38.85859491 -22.41015625 34.515625 C-22.39210938 33.63261719 -22.3740625 32.74960937 -22.35546875 31.83984375 C-22.33226562 31.17597656 -22.3090625 30.51210938 -22.28515625 29.828125 C-18.15409565 29.04990444 -14.24845379 28.6998196 -10.046875 28.6953125 C-8.89767578 28.69402344 -7.74847656 28.69273438 -6.56445312 28.69140625 C-5.37916016 28.69527344 -4.19386719 28.69914062 -2.97265625 28.703125 C-1.16571289 28.69732422 -1.16571289 28.69732422 0.67773438 28.69140625 C2.39186523 28.69333984 2.39186523 28.69333984 4.140625 28.6953125 C5.70937378 28.69700439 5.70937378 28.69700439 7.30981445 28.69873047 C9.71484375 28.828125 9.71484375 28.828125 10.71484375 29.828125 C10.85294139 32.30226336 10.92793087 34.74653892 10.953125 37.22265625 C10.96119675 37.96642014 10.96926849 38.71018402 10.97758484 39.47648621 C10.99144087 41.05436868 11.00215621 42.63228131 11.01000977 44.21020508 C11.02720047 46.62053588 11.07106688 49.02948715 11.11523438 51.43945312 C11.12536303 52.97134406 11.13387859 54.50324668 11.140625 56.03515625 C11.15813309 56.75508255 11.17564117 57.47500885 11.19367981 58.2167511 C11.17894772 61.62676176 10.98901503 63.47275558 8.87817383 66.20874023 C-1.47523261 73.95889766 -13.80511342 75.36530101 -26.28515625 73.828125 C-35.9263292 72.04660391 -43.0721878 66.36629948 -48.94921875 58.640625 C-52.92728653 52.49904667 -54.64946626 46.97683752 -55.03515625 39.640625 C-55.07608398 38.88539551 -55.11701172 38.13016602 -55.15917969 37.35205078 C-55.58887917 27.0193287 -53.02087677 18.93527984 -48.28515625 9.828125 C-47.62515625 9.828125 -46.96515625 9.828125 -46.28515625 9.828125 C-45.91390625 8.9 -45.91390625 8.9 -45.53515625 7.953125 C-44.07886986 5.47743813 -42.90703119 4.87687498 -40.28515625 3.828125 C-40.28515625 3.168125 -40.28515625 2.508125 -40.28515625 1.828125 C-39.07959021 1.19780367 -37.87052436 0.5741753 -36.66015625 -0.046875 C-35.65082031 -0.56894531 -35.65082031 -0.56894531 -34.62109375 -1.1015625 C-23.46692689 -6.21233461 -10.8768643 -5.57787913 0 0 Z " fill="#FEFEFE" transform="translate(402.28515625,6.171875)"/>
<path d="M0 0 C0.88602402 0.00222061 1.77204803 0.00444122 2.68492126 0.00672913 C3.68588333 0.00680466 4.6868454 0.00688019 5.71813965 0.00695801 C6.80666733 0.01211929 7.89519501 0.01728058 9.01670837 0.02259827 C10.67928932 0.02472069 10.67928932 0.02472069 12.37545776 0.02688599 C15.93168281 0.03250418 19.48784596 0.04505977 23.04405212 0.05775452 C25.44834809 0.06276717 27.85264504 0.06733048 30.25694275 0.07142639 C36.1651699 0.08247953 42.0733505 0.09975635 47.98155212 0.12025452 C47.98155212 5.40025452 47.98155212 10.68025452 47.98155212 16.12025452 C37.42155212 16.12025452 26.86155212 16.12025452 15.98155212 16.12025452 C15.98155212 20.08025452 15.98155212 24.04025452 15.98155212 28.12025452 C24.89155212 28.12025452 33.80155212 28.12025452 42.98155212 28.12025452 C42.98155212 41.12025452 42.98155212 41.12025452 41.98155212 44.12025452 C33.40155212 44.12025452 24.82155212 44.12025452 15.98155212 44.12025452 C15.98155212 49.07025452 15.98155212 54.02025452 15.98155212 59.12025452 C16.97155212 58.62525452 16.97155212 58.62525452 17.98155212 58.12025452 C20.30571508 58.03438643 22.63238519 58.01314408 24.95811462 58.02259827 C25.64336212 58.02401321 26.32860962 58.02542816 27.03462219 58.02688599 C29.22530973 58.03248777 31.41589542 58.04504046 33.60655212 58.05775452 C35.09092565 58.06276929 36.57530077 58.06733224 38.05967712 58.07142639 C41.70037302 58.08160731 45.34084844 58.10118215 48.98155212 58.12025452 C48.98155212 63.40025452 48.98155212 68.68025452 48.98155212 74.12025452 C46.20082587 75.04716327 44.53546348 75.24665609 41.66539001 75.24964905 C40.79761429 75.25280121 39.92983856 75.25595337 39.0357666 75.25920105 C38.10135239 75.25717682 37.16693817 75.25515259 36.20420837 75.25306702 C35.24131393 75.25402374 34.27841949 75.25498047 33.28634644 75.25596619 C31.24960769 75.25664678 29.21286678 75.25480089 27.1761322 75.25062561 C24.05979021 75.24528151 20.94359272 75.25057169 17.82725525 75.25697327 C15.84873931 75.25631235 13.87022345 75.25503091 11.89170837 75.25306702 C10.95931839 75.25509125 10.02692841 75.25711548 9.06628418 75.25920105 C8.19535629 75.25604889 7.32442841 75.25289673 6.42710876 75.24964905 C5.66338455 75.24885345 4.89966034 75.24805786 4.11279297 75.24723816 C1.9551782 75.11868311 0.05579205 74.71273697 -2.01844788 74.12025452 C-2.17203535 64.61959265 -2.32021705 55.11886662 -2.46141148 45.61801243 C-2.52713858 41.20684745 -2.59475925 36.79572813 -2.66664124 32.38465881 C-2.73588456 28.13130371 -2.8002404 23.87790068 -2.86114311 19.62441826 C-2.8853021 17.99801362 -2.91125114 16.3716346 -2.93898201 14.74528694 C-2.97738938 12.47521602 -3.00954981 10.20513908 -3.04017639 7.93495178 C-3.0601619 6.64033524 -3.0801474 5.34571869 -3.10073853 4.01187134 C-2.99163955 0.17823506 -2.99163955 0.17823506 0 0 Z " fill="#FEFEFE" transform="translate(596.0184478759766,3.8797454833984375)"/>
<path d="M0 0 C5.94 0 11.88 0 18 0 C18.63615234 1.85238281 18.63615234 1.85238281 19.28515625 3.7421875 C22.2517452 12.32685034 25.28062192 20.86695138 28.625 29.3125 C31.2131643 35.85079586 33.50258915 42.41770025 35.66796875 49.109375 C37.47144619 54.5240508 39.62094351 59.81261791 41.765625 65.09960938 C44 70.68554688 44 70.68554688 44 74 C40.62231526 75.12589491 37.99187928 75.13294275 34.4375 75.125 C33.28121094 75.12757812 32.12492187 75.13015625 30.93359375 75.1328125 C28 75 28 75 26 74 C24.9296875 71.3828125 24.9296875 71.3828125 23.875 68.125 C23.52179688 67.05507812 23.16859375 65.98515625 22.8046875 64.8828125 C22 62 22 62 22 59 C8.635 59.495 8.635 59.495 -5 60 C-6.32 63.96 -7.64 67.92 -9 72 C-10 74 -10 74 -11.78125 74.6171875 C-14.06576812 75.01134732 -16.18277286 75.13293571 -18.5 75.125 C-19.2528125 75.12757812 -20.005625 75.13015625 -20.78125 75.1328125 C-22.97752628 75.00134526 -24.87923615 74.56023326 -27 74 C-25.75095859 68.6738989 -24.23095288 63.60369148 -22.25 58.5 C-21.71220447 57.08855505 -21.17444504 55.67709634 -20.63671875 54.265625 C-20.3639209 53.55470703 -20.09112305 52.84378906 -19.81005859 52.11132812 C-18.55039597 48.82815684 -17.30287507 45.54050287 -16.0625 42.25 C-15.81862549 41.60385742 -15.57475098 40.95771484 -15.32348633 40.29199219 C-13.26976922 34.80919995 -11.34974009 29.28344454 -9.4375 23.75 C-6.65091809 15.69715329 -3.8176796 7.6353592 0 0 Z M8 18 C6.6618184 21.95671116 5.330278 25.91562528 4 29.875 C3.6184375 31.00292969 3.236875 32.13085938 2.84375 33.29296875 C2.4828125 34.36933594 2.121875 35.44570313 1.75 36.5546875 C1.41484375 37.54968262 1.0796875 38.54467773 0.734375 39.56982422 C-0.09642355 41.89596371 -0.09642355 41.89596371 0 44 C5.61 44 11.22 44 17 44 C13.21269261 30.93298399 13.21269261 30.93298399 9 18 C8.67 18 8.34 18 8 18 Z " fill="#FEFEFE" transform="translate(302,4)"/>
<path d="M0 0 C16.83 0 33.66 0 51 0 C51 4.95 51 9.9 51 15 C50 16 50 16 46.94897461 16.11352539 C45.60008729 16.11336634 44.25119386 16.10767612 42.90234375 16.09765625 C41.83905602 16.09553383 41.83905602 16.09553383 40.75428772 16.09336853 C38.48198288 16.08775443 36.20977525 16.07519963 33.9375 16.0625 C32.40039204 16.05748681 30.86328255 16.05292359 29.32617188 16.04882812 C25.55071333 16.0386297 21.77546596 16.01905732 18 16 C18 20.95 18 25.9 18 31 C26.91 31 35.82 31 45 31 C44.67 36.61 44.34 42.22 44 48 C35.42 48 26.84 48 18 48 C18 56.58 18 65.16 18 74 C14.77717587 75.07427471 12.38488847 75.1332963 9 75.125 C7.948125 75.12757812 6.89625 75.13015625 5.8125 75.1328125 C3 75 3 75 0 74 C0 49.58 0 25.16 0 0 Z " fill="#FEFEFE" transform="translate(534,4)"/>
<path d="M0 0 C5.61 0 11.22 0 17 0 C17.70111732 4.90782124 18.12274181 9.06958451 18.11352539 13.94506836 C18.11367142 14.59957977 18.11381744 15.25409119 18.1139679 15.92843628 C18.11327801 18.06560727 18.10552946 20.20268822 18.09765625 22.33984375 C18.09578878 23.83199516 18.09436643 25.32414719 18.09336853 26.81629944 C18.08956925 30.72398604 18.07976135 34.63163486 18.06866455 38.53930664 C18.0583945 42.53466277 18.05385897 46.53002507 18.04882812 50.52539062 C18.03813652 58.35027755 18.02109154 66.17513346 18 74 C15.08190012 74.97269996 13.16293711 75.13423385 10.125 75.125 C9.28195312 75.12757812 8.43890625 75.13015625 7.5703125 75.1328125 C5 75 5 75 0 74 C0 49.58 0 25.16 0 0 Z " fill="#FEFEFE" transform="translate(503,4)"/>
<path d="M0 0 C4.02514326 4.6778692 5.09496932 8.96417209 5 15 C4.04134727 20.14186462 2.43594172 24.03545186 -1 28 C-6.09483938 31.39655959 -10.81736954 32.67115301 -16.86328125 31.60546875 C-21.64915655 30.24932493 -24.95093779 28.13188291 -28.375 24.4375 C-31.18014203 18.50354571 -31.96130243 12.03432338 -30 5.6875 C-27.750069 0.67159877 -23.75309216 -2.88388156 -18.6875 -4.9375 C-11.51926944 -5.10420304 -5.61503544 -4.94657884 0 0 Z M-20 6 C-22.66539031 9.99808546 -22.84149704 13.29751653 -22 18 C-19.72872666 21.02409364 -19.72872666 21.02409364 -17 23 C-16.67 23.33 -16.34 23.66 -16 24 C-11.88892225 23.84188163 -9.48577446 23.33074006 -6.0625 21 C-3.6197169 17.44686095 -3.31828202 15.38238908 -3.5859375 11.15625 C-4.23593371 7.77136408 -5.34674558 6.17702927 -8 4 C-13.06691154 2.52598937 -15.85484288 2.68387431 -20 6 Z " fill="#FEFEFE" transform="translate(524,106)"/>
<path d="M0 0 C2.97 0 5.94 0 9 0 C9.66 1.98 10.32 3.96 11 6 C11.66 6 12.32 6 13 6 C14.25836598 7.76403729 15.4338265 9.58779499 16.5625 11.4375 C18.53533923 14.90436436 18.53533923 14.90436436 21 18 C21.33 12.06 21.66 6.12 22 0 C24.31 0 26.62 0 29 0 C30.47360305 2.94720609 30.14233596 5.93035368 30.1328125 9.16015625 C30.13424759 10.21776405 30.13424759 10.21776405 30.13571167 11.29673767 C30.13639229 12.78710011 30.13454621 14.27746552 30.13037109 15.76782227 C30.12501318 18.05687058 30.13032409 20.34572337 30.13671875 22.63476562 C30.1360581 24.0807296 30.13477722 25.52669346 30.1328125 26.97265625 C30.13483673 27.66118179 30.13686096 28.34970734 30.13894653 29.05909729 C30.11495764 33.88504236 30.11495764 33.88504236 29 35 C26.1875 35.3125 26.1875 35.3125 23 35 C19.06172609 31.76880659 16.49923792 27.47775249 13.75 23.25 C13.29109375 22.55261719 12.8321875 21.85523437 12.359375 21.13671875 C11.23534594 19.42725789 10.11708776 17.71400488 9 16 C8.93941406 17.28777344 8.87882812 18.57554688 8.81640625 19.90234375 C8.73201753 21.58074159 8.6473687 23.25912636 8.5625 24.9375 C8.52318359 25.78763672 8.48386719 26.63777344 8.44335938 27.51367188 C8.40146484 28.32255859 8.35957031 29.13144531 8.31640625 29.96484375 C8.26141968 31.08814087 8.26141968 31.08814087 8.20532227 32.23413086 C8 34 8 34 7 35 C4.69 35 2.38 35 0 35 C0 23.45 0 11.9 0 0 Z " fill="#FDFEFE" transform="translate(445,102)"/>
<path d="M0 0 C2.97 0 5.94 0 9 0 C9.36351562 0.969375 9.72703125 1.93875 10.1015625 2.9375 C10.46193604 3.89813354 10.46193604 3.89813354 10.82958984 4.87817383 C11.36441036 6.30485434 11.89857935 7.73177924 12.43212891 9.15893555 C13.85115561 12.95173538 15.28082767 16.73981379 16.734375 20.51953125 C17.00942871 21.23947266 17.28448242 21.95941406 17.56787109 22.70117188 C18.09807807 24.08811378 18.63214253 25.47358834 19.17041016 26.85742188 C20.26398503 29.72961449 21 31.89715442 21 35 C19.72125 35.061875 18.4425 35.12375 17.125 35.1875 C16.04605469 35.23970703 16.04605469 35.23970703 14.9453125 35.29296875 C14.30335938 35.19628906 13.66140625 35.09960938 13 35 C11 32 11 32 11 28 C6.71 28 2.42 28 -2 28 C-2.33 29.98 -2.66 31.96 -3 34 C-5.95664519 35.4783226 -8.74229737 35.06032783 -12 35 C-9.68505695 22.79393666 -4.89445805 11.37180466 0 0 Z M4 10 C3.01 13.3 2.02 16.6 1 20 C2.98 20 4.96 20 7 20 C6.46599103 16.08393425 5.80330533 13.60661066 4 10 Z " fill="#FDFEFE" transform="translate(335,102)"/>
<path d="M0 0 C2.30078125 1.5546875 2.30078125 1.5546875 4 3 C3.67 4.65 3.34 6.3 3 8 C2.34 8 1.68 8 1 8 C1 8.66 1 9.32 1 10 C0.34 10 -0.32 10 -1 10 C-1 9.34 -1 8.68 -1 8 C-4.3 8 -7.6 8 -11 8 C-11 9.32 -11 10.64 -11 12 C-10.41992188 12.09796875 -9.83984375 12.1959375 -9.2421875 12.296875 C-3.33366808 13.42787872 1.46170847 14.90990596 5.4375 19.75 C6.32521701 23.30086805 5.98915564 26.49102453 5 30 C2.33276857 33.75388127 -0.53620811 35.07355263 -5 36 C-11.37769942 36.10474324 -15.7214454 34.48159984 -21 31 C-20.38722388 28.03824877 -19.74627478 26.61941217 -18 24 C-17.01 24 -16.02 24 -15 24 C-15 24.66 -15 25.32 -15 26 C-13.37512529 26.16788373 -11.75009558 26.33426787 -10.125 26.5 C-8.76761719 26.63921875 -8.76761719 26.63921875 -7.3828125 26.78125 C-5.06686789 27.03047295 -5.06686789 27.03047295 -3 27 C-3 25.35 -3 23.7 -3 22 C-3.65226562 21.91363281 -4.30453125 21.82726562 -4.9765625 21.73828125 C-11.08465615 20.75630159 -14.88794095 19.74468351 -19 15 C-20.03892012 11.05210356 -20.39592646 7.87757349 -19 4 C-18.34 4 -17.68 4 -17 4 C-17 3.34 -17 2.68 -17 2 C-11.23092553 -1.13536656 -6.41590451 -1.69801158 0 0 Z " fill="#FEFEFE" transform="translate(391,102)"/>
<path d="M0 0 C3 1.75 3 1.75 4.125 3.6875 C3.95206303 6.54095993 2.99957901 7.75042099 1 9.75 C0.01 9.75 -0.98 9.75 -2 9.75 C-2 9.09 -2 8.43 -2 7.75 C-8.15210482 6.46377794 -8.15210482 6.46377794 -14 7.75 C-16.27932996 12.42262641 -16.49179946 16.66807222 -16 21.75 C-14.06652792 24.54279301 -12.76756107 25.49414631 -9.5625 26.5625 C-6.83143064 26.76233434 -4.6433064 26.42970736 -2 25.75 C-2 25.09 -2 24.43 -2 23.75 C0.46800047 24.90173355 2.04783565 25.79783565 4 27.75 C3.84375 29.734375 3.84375 29.734375 3 31.75 C-1.21235706 35.23164206 -6.38990375 36.46827339 -11.76171875 36.19921875 C-17.16973752 35.11383976 -20.85376193 32.04319166 -24.4375 28 C-27.08572357 22.49169498 -27.46785101 17.82191161 -26.125 11.875 C-25.75375 10.84375 -25.3825 9.8125 -25 8.75 C-24.67 7.76 -24.34 6.77 -24 5.75 C-23.34 5.75 -22.68 5.75 -22 5.75 C-22 5.09 -22 4.43 -22 3.75 C-21.34 3.75 -20.68 3.75 -20 3.75 C-20 3.09 -20 2.43 -20 1.75 C-13.33377539 -1.65402959 -7.17256373 -2.67501352 0 0 Z " fill="#FEFEFE" transform="translate(304,102.25)"/>
<path d="M0 0 C2.64 0 5.28 0 8 0 C8 11.55 8 23.1 8 35 C5.36 35 2.72 35 0 35 C-1.70492881 33.29507119 -1.1280442 31.15465739 -1.13894653 28.88098145 C-1.1369223 28.16744507 -1.13489807 27.45390869 -1.1328125 26.71875 C-1.13376923 25.99006714 -1.13472595 25.26138428 -1.13571167 24.51062012 C-1.13639335 22.9672029 -1.13453988 21.42378283 -1.13037109 19.88037109 C-1.12502262 17.510026 -1.13031642 15.13987041 -1.13671875 12.76953125 C-1.13605797 11.27343708 -1.1347768 9.77734303 -1.1328125 8.28125 C-1.13483673 7.56771362 -1.13686096 6.85417725 -1.13894653 6.11901855 C-1.11495191 1.11495191 -1.11495191 1.11495191 0 0 Z " fill="#FEFEFE" transform="translate(416,102)"/>
<path d="M0 0 C0.598125 0.20625 1.19625 0.4125 1.8125 0.625 C2.0625 2.9375 2.0625 2.9375 1.8125 5.625 C0.0625 7.5 0.0625 7.5 -2.1875 8.625 C-4.4375 8.3125 -4.4375 8.3125 -6.1875 7.625 C-5.875 4.75 -5.875 4.75 -5.1875 1.625 C-2.1875 -0.375 -2.1875 -0.375 0 0 Z " fill="#1C261C" transform="translate(69.1875,73.375)"/>
<path d="M0 0 C1.65 0.33 3.3 0.66 5 1 C4.63287028 3.71675995 4.27255401 5.61063713 2.6875 7.875 C1 9 1 9 -1.1875 8.6875 C-1.785625 8.460625 -2.38375 8.23375 -3 8 C-2.45276317 4.62537285 -1.9451 2.91765 0 0 Z " fill="#1C251B" transform="translate(80,63)"/>
<path d="M0 0 C1.32 0 2.64 0 4 0 C4 0.66 4 1.32 4 2 C4.66 2 5.32 2 6 2 C6 3.98 6 5.96 6 8 C3.15673536 8.23053497 1.53854651 8.35903101 -0.875 6.75 C-2 5 -2 5 -1.75 2.875 C-1 1 -1 1 0 0 Z " fill="#1C1C16" transform="translate(35,63)"/>
<path d="M0 0 C2.00720923 0.28674418 4.0085944 0.61866701 6 1 C6.33 2.98 6.66 4.96 7 7 C2.25 8.125 2.25 8.125 0 7 C-0.6875 4 -0.6875 4 -1 1 C-0.67 0.67 -0.34 0.34 0 0 Z " fill="#1B2019" transform="translate(49,84)"/>
<path d="M0 0 C2.9375 0.1875 2.9375 0.1875 6 1 C7.375 3.0625 7.375 3.0625 8 5 C6 7 6 7 2.875 7.125 C1.451875 7.063125 1.451875 7.063125 0 7 C-0.38133299 5.0085944 -0.71325582 3.00720923 -1 1 C-0.67 0.67 -0.34 0.34 0 0 Z " fill="#1C1D17" transform="translate(57,58)"/>
<path d="M0 0 C2.00720923 0.28674418 4.0085944 0.61866701 6 1 C6.33 2.32 6.66 3.64 7 5 C4 7 4 7 0.8125 6.625 C-0.115625 6.41875 -1.04375 6.2125 -2 6 C-1.125 1.125 -1.125 1.125 0 0 Z " fill="#1C1E17" transform="translate(43,48)"/>
<path d="M0 0 C0.99 0.33 1.98 0.66 3 1 C2.67 3.31 2.34 5.62 2 8 C0.35 8.33 -1.3 8.66 -3 9 C-3.75 6.75 -3.75 6.75 -4 4 C-2.0625 1.6875 -2.0625 1.6875 0 0 Z " fill="#1C221A" transform="translate(67,85)"/>
<path d="M0 0 C0.625 1.875 0.625 1.875 1 4 C-1 6 -1 6 -4.125 6.125 C-5.548125 6.063125 -5.548125 6.063125 -7 6 C-7.33 4.35 -7.66 2.7 -8 1 C-5.29120665 -0.35439668 -2.99066732 -0.06501451 0 0 Z " fill="#1C1C17" transform="translate(63,39)"/>
<path d="M0 0 C2.375 -0.125 2.375 -0.125 5 0 C7 2 7 2 7.125 5.125 C7.08375 6.07375 7.0425 7.0225 7 8 C4.625 7.6875 4.625 7.6875 2 7 C0 4 0 4 0 0 Z " fill="#1D2119" transform="translate(48,71)"/>
<path d="M0 0 C0.99 0 1.98 0 3 0 C4.125 5.75 4.125 5.75 3 8 C1.02 8 -0.96 8 -3 8 C-2.25 2.25 -2.25 2.25 0 0 Z " fill="#1C2018" transform="translate(80,77)"/>
<path d="M0 0 C0.94875 0.04125 1.8975 0.0825 2.875 0.125 C2.917721 1.79111905 2.91563832 3.45882885 2.875 5.125 C1.875 6.125 1.875 6.125 -1.1875 6.1875 C-2.156875 6.166875 -3.12625 6.14625 -4.125 6.125 C-4.75 4.25 -4.75 4.25 -5.125 2.125 C-3.125 0.125 -3.125 0.125 0 0 Z " fill="#1C1914" transform="translate(74.125,48.875)"/>
<path d="M0 0 C1.9375 0.125 1.9375 0.125 4 1 C5.25 3.5625 5.25 3.5625 6 6 C5.34 6.66 4.68 7.32 4 8 C0.46428571 7.46428571 0.46428571 7.46428571 -1 6 C-1.125 3.5 -1.125 3.5 -1 1 C-0.67 0.67 -0.34 0.34 0 0 Z " fill="#1C281D" transform="translate(36,76)"/>
</svg>
